<svg width="185" height="40" viewBox="0 0 185 40" fill="none" xmlns="http://www.w3.org/2000/svg">
	<g clip-path="url(#clip0_198_2658)">
		<path d="M49.1709 11.4178C49.1709 10.9296 49.3647 10.4613 49.71 10.1161C50.0552 9.77083 50.5235 9.5769 51.0117 9.5769C51.5 9.5769 51.9685 9.77083 52.3137 10.1161C52.659 10.4613 52.8528 10.9296 52.8528 11.4178V31.7339C52.8528 31.9757 52.8052 32.215 52.7126 32.4384C52.6201 32.6617 52.4847 32.8647 52.3137 33.0356C52.1428 33.2066 51.9397 33.3422 51.7163 33.4347C51.4929 33.5272 51.2535 33.5748 51.0117 33.5748C50.77 33.5748 50.5307 33.5272 50.3074 33.4347C50.084 33.3422 49.8809 33.2066 49.71 33.0356C49.539 32.8647 49.4036 32.6617 49.311 32.4384C49.2185 32.215 49.1709 31.9757 49.1709 31.7339V11.4178Z" fill="#FFFFFE" />
		<path d="M55.4629 11.8189C55.4629 11.3884 55.5907 10.9676 55.8298 10.6098C56.069 10.2519 56.4087 9.97303 56.8064 9.80837C57.2041 9.6437 57.6416 9.60067 58.0637 9.68471C58.4859 9.76875 58.8737 9.97611 59.178 10.2805C59.4823 10.585 59.6894 10.9727 59.7732 11.3949C59.857 11.8171 59.8138 12.2546 59.6489 12.6522C59.4841 13.0498 59.2051 13.3896 58.8472 13.6286C58.4892 13.8675 58.0684 13.995 57.6379 13.9948C57.3521 13.9953 57.0689 13.9394 56.8047 13.8302C56.5405 13.721 56.3005 13.5607 56.0984 13.3585C55.8963 13.1564 55.7363 12.9164 55.6272 12.6521C55.5181 12.3879 55.4622 12.1047 55.4629 11.8189ZM55.7979 17.7767C55.7979 17.2885 55.9919 16.8202 56.3372 16.475C56.6824 16.1297 57.1507 15.9358 57.6389 15.9358C58.1272 15.9358 58.5954 16.1297 58.9407 16.475C59.2859 16.8202 59.48 17.2885 59.48 17.7767V31.7328C59.48 31.9746 59.4324 32.2139 59.3398 32.4373C59.2473 32.6606 59.1116 32.8636 58.9407 33.0346C58.7697 33.2055 58.5669 33.3411 58.3435 33.4336C58.1202 33.5261 57.8807 33.5737 57.6389 33.5737C57.3972 33.5737 57.1577 33.5261 56.9343 33.4336C56.711 33.3411 56.5081 33.2055 56.3372 33.0346C56.1662 32.8636 56.0305 32.6606 55.938 32.4373C55.8455 32.2139 55.7979 31.9746 55.7979 31.7328V17.7767Z" fill="#FFFFFE" />
		<path d="M61.7218 24.772C61.6793 23.6296 61.8663 22.4903 62.2716 21.4214C62.677 20.3525 63.2925 19.3758 64.0819 18.549C64.8713 17.7221 65.8184 17.0619 66.8673 16.6074C67.9163 16.1529 69.0457 15.9134 70.1889 15.903C72.2397 15.8848 74.2226 16.6375 75.7448 18.012V17.778C75.739 17.5326 75.7825 17.2887 75.8725 17.0604C75.9624 16.8321 76.097 16.624 76.2684 16.4485C76.4399 16.273 76.6448 16.1336 76.871 16.0383C77.0971 15.9431 77.34 15.894 77.5853 15.894C77.8307 15.894 78.0736 15.9431 78.2997 16.0383C78.5258 16.1336 78.7308 16.273 78.9022 16.4485C79.0737 16.624 79.2083 16.8321 79.2982 17.0604C79.3882 17.2887 79.4316 17.5326 79.4259 17.778V31.132C79.4275 32.3112 79.1936 33.479 78.7379 34.5667C78.2823 35.6543 77.614 36.6401 76.7724 37.4662C75.9307 38.2922 74.9328 38.9419 73.8368 39.3772C72.7408 39.8125 71.5688 40.0245 70.3898 40.001C69.1958 40.0288 68.0096 39.8047 66.9081 39.3433C65.8066 38.8818 64.8146 38.1934 63.997 37.323C63.687 36.9805 63.4985 36.5453 63.4608 36.085C63.4584 35.85 63.504 35.617 63.5949 35.4003C63.6857 35.1836 63.8201 34.9877 63.9894 34.8247C64.1587 34.6618 64.3594 34.5351 64.5795 34.4526C64.7995 34.3701 65.0342 34.3335 65.2689 34.345C65.5785 34.3721 65.8796 34.46 66.1552 34.6036C66.4307 34.7473 66.6753 34.9438 66.8749 35.182C67.8177 36.0922 69.0794 36.5969 70.3898 36.588C71.7502 36.5895 73.0595 36.0701 74.049 35.1366C75.0385 34.2031 75.6332 32.9261 75.7108 31.568C74.1899 32.9184 72.2227 33.6576 70.1889 33.6429C69.0456 33.6325 67.9159 33.393 66.8668 32.9384C65.8178 32.4838 64.8706 31.8234 64.0812 30.9963C63.2918 30.1693 62.6764 29.1923 62.2711 28.1232C61.8659 27.0541 61.679 25.9145 61.7218 24.772V24.772ZM75.7448 25.006V24.772C75.714 23.3659 75.13 22.0288 74.1193 21.0508C73.1086 20.0728 71.7529 19.5329 70.3466 19.5483C68.9403 19.5637 67.5968 20.1332 66.6078 21.1331C65.6188 22.133 65.0641 23.4825 65.0641 24.8889C65.0641 26.2953 65.6188 27.645 66.6078 28.6449C67.5968 29.6448 68.9403 30.2142 70.3466 30.2296C71.7529 30.245 73.1086 29.7052 74.1193 28.7272C75.13 27.7492 75.714 26.412 75.7448 25.006V25.006Z" fill="#FFFFFE" />
		<path d="M82.3682 11.4178C82.3625 11.1725 82.4057 10.9286 82.4956 10.7003C82.5855 10.472 82.7201 10.264 82.8916 10.0885C83.0631 9.91298 83.268 9.77344 83.4942 9.67822C83.7203 9.583 83.9631 9.53394 84.2085 9.53394C84.4539 9.53394 84.697 9.583 84.9231 9.67822C85.1493 9.77344 85.3539 9.91298 85.5254 10.0885C85.6969 10.264 85.8315 10.472 85.9214 10.7003C86.0113 10.9286 86.0548 11.1725 86.0491 11.4178V17.3759C87.2594 16.4201 88.7569 15.9011 90.2991 15.9028C94.2821 15.9028 97.428 18.9149 97.428 23.7029V31.7349C97.4309 32.2272 97.239 32.7007 96.8941 33.052C96.5491 33.4033 96.0794 33.6038 95.5872 33.6099C95.3426 33.6096 95.1005 33.5608 94.875 33.4661C94.6495 33.3713 94.445 33.2326 94.2737 33.0581C94.1023 32.8836 93.9676 32.6768 93.877 32.4496C93.7864 32.2224 93.7419 31.9794 93.7461 31.7349V23.5688C93.7461 20.7578 92.039 19.3179 89.897 19.3179C87.789 19.3179 86.0481 20.7568 86.0481 23.5688V31.7349C86.0538 31.9802 86.0103 32.2242 85.9204 32.4525C85.8305 32.6808 85.6959 32.8888 85.5244 33.0643C85.353 33.2398 85.148 33.3793 84.9219 33.4745C84.6957 33.5697 84.4529 33.6188 84.2075 33.6188C83.9622 33.6188 83.7193 33.5697 83.4932 33.4745C83.267 33.3793 83.0621 33.2398 82.8906 33.0643C82.7192 32.8888 82.5846 32.6808 82.4946 32.4525C82.4047 32.2242 82.3615 31.9802 82.3672 31.7349L82.3682 11.4178Z" fill="#FFFFFE" />
		<path d="M98.0367 17.9448C98.0348 17.7201 98.0778 17.4973 98.1629 17.2893C98.248 17.0814 98.3736 16.8925 98.5325 16.7336C98.6914 16.5748 98.8805 16.449 99.0884 16.3639C99.2964 16.2788 99.519 16.2359 99.7437 16.2378H100.949V13.7278C100.949 13.2395 101.143 12.7713 101.488 12.426C101.833 12.0808 102.302 11.8867 102.79 11.8867C103.278 11.8867 103.746 12.0808 104.092 12.426C104.437 12.7713 104.631 13.2395 104.631 13.7278V16.2378H108.547C108.771 16.2359 108.994 16.2788 109.202 16.3639C109.41 16.449 109.599 16.5748 109.758 16.7336C109.917 16.8925 110.043 17.0814 110.128 17.2893C110.213 17.4973 110.256 17.7201 110.254 17.9448C110.252 18.397 110.071 18.8301 109.752 19.1498C109.432 19.4695 108.999 19.6499 108.547 19.6517H104.631V25.7098C104.631 28.6548 106.271 30.1617 108.547 30.1617C108.997 30.1726 109.424 30.359 109.739 30.681C110.053 31.0031 110.229 31.4352 110.229 31.8853C110.229 32.3353 110.053 32.7676 109.739 33.0896C109.424 33.4116 108.997 33.5979 108.547 33.6088C104.23 33.6088 100.947 30.5627 100.947 25.7087V19.6508H99.7418C99.2901 19.6484 98.8577 19.4679 98.5384 19.1484C98.2191 18.829 98.0388 18.3965 98.0367 17.9448V17.9448Z" fill="#FFFFFE" />
		<path d="M112.094 11.4178C112.088 11.1725 112.132 10.9286 112.221 10.7003C112.311 10.472 112.446 10.264 112.617 10.0885C112.789 9.91298 112.994 9.77344 113.22 9.67822C113.446 9.583 113.689 9.53394 113.934 9.53394C114.18 9.53394 114.423 9.583 114.649 9.67822C114.875 9.77344 115.08 9.91298 115.251 10.0885C115.423 10.264 115.557 10.472 115.647 10.7003C115.737 10.9286 115.781 11.1725 115.775 11.4178V31.7339C115.781 31.9792 115.737 32.2231 115.647 32.4514C115.557 32.6797 115.423 32.8878 115.251 33.0634C115.08 33.2389 114.875 33.3783 114.649 33.4735C114.423 33.5687 114.18 33.6178 113.934 33.6178C113.689 33.6178 113.446 33.5687 113.22 33.4735C112.994 33.3783 112.789 33.2389 112.617 33.0634C112.446 32.8878 112.311 32.6797 112.221 32.4514C112.132 32.2231 112.088 31.9792 112.094 31.7339V11.4178Z" fill="#FFFFFE" />
		<path d="M119.423 31.499V17.777C119.423 17.2887 119.617 16.8205 119.962 16.4752C120.307 16.13 120.775 15.936 121.264 15.936C121.752 15.936 122.22 16.13 122.565 16.4752C122.911 16.8205 123.105 17.2887 123.105 17.777V27.115L131.975 16.5389C132.127 16.3488 132.321 16.1959 132.541 16.0919C132.761 15.9879 133.002 15.9356 133.246 15.939C133.471 15.9298 133.696 15.9663 133.907 16.0463C134.118 16.1262 134.31 16.248 134.473 16.4043C134.636 16.5606 134.765 16.7481 134.853 16.9557C134.942 17.1632 134.987 17.3865 134.987 17.6121C135.001 18.0167 134.858 18.4112 134.587 18.712L117.287 39.3621C117.132 39.5496 116.938 39.7006 116.719 39.8043C116.499 39.9081 116.259 39.9619 116.016 39.962C115.788 39.9745 115.56 39.9405 115.346 39.8621C115.131 39.7836 114.935 39.6625 114.769 39.5059C114.603 39.3493 114.471 39.1605 114.38 38.9512C114.29 38.7418 114.242 38.5161 114.242 38.288C114.243 37.8859 114.385 37.497 114.642 37.188L119.423 31.499Z" fill="#FFFFFE" />
		<path d="M136.487 17.9448C136.485 17.7201 136.528 17.4973 136.613 17.2893C136.698 17.0814 136.824 16.8925 136.983 16.7336C137.142 16.5748 137.331 16.449 137.539 16.3639C137.747 16.2788 137.969 16.2359 138.194 16.2378H139.394V13.7278C139.394 13.2395 139.588 12.7713 139.933 12.426C140.278 12.0808 140.747 11.8867 141.235 11.8867C141.723 11.8867 142.191 12.0808 142.537 12.426C142.882 12.7713 143.076 13.2395 143.076 13.7278V16.2378H146.992C147.217 16.2359 147.44 16.2788 147.648 16.3639C147.855 16.449 148.044 16.5748 148.203 16.7336C148.362 16.8925 148.488 17.0814 148.573 17.2893C148.658 17.4973 148.701 17.7201 148.699 17.9448C148.697 18.397 148.517 18.8301 148.197 19.1498C147.877 19.4695 147.444 19.6499 146.992 19.6517H143.076V25.7098C143.076 28.6548 144.716 30.1617 146.992 30.1617C147.442 30.1726 147.87 30.359 148.184 30.681C148.499 31.0031 148.674 31.4352 148.674 31.8853C148.674 32.3353 148.499 32.7676 148.184 33.0896C147.87 33.4116 147.442 33.5979 146.992 33.6088C142.675 33.6088 139.392 30.5627 139.392 25.7087V19.6508H138.192C137.74 19.6484 137.308 19.4679 136.989 19.1484C136.669 18.829 136.489 18.3965 136.487 17.9448V17.9448Z" fill="#FFFFFE" />
		<path d="M150.212 11.8188C150.224 11.2499 150.459 10.7085 150.865 10.3104C151.272 9.91239 151.818 9.68945 152.387 9.68945C152.956 9.68945 153.503 9.91239 153.909 10.3104C154.316 10.7085 154.551 11.2499 154.563 11.8188C154.569 12.1085 154.517 12.3964 154.411 12.6658C154.304 12.9352 154.145 13.1806 153.942 13.3876C153.74 13.5946 153.498 13.759 153.231 13.8713C152.964 13.9836 152.677 14.0414 152.387 14.0414C152.098 14.0414 151.811 13.9836 151.544 13.8713C151.277 13.759 151.035 13.5946 150.832 13.3876C150.63 13.1806 150.47 12.9352 150.364 12.6658C150.257 12.3964 150.206 12.1085 150.212 11.8188V11.8188ZM150.547 17.7767C150.541 17.5314 150.585 17.2875 150.675 17.0592C150.764 16.8309 150.899 16.6229 151.071 16.4474C151.242 16.2719 151.447 16.1323 151.673 16.0371C151.899 15.9419 152.142 15.8929 152.387 15.8929C152.633 15.8929 152.876 15.9419 153.102 16.0371C153.328 16.1323 153.533 16.2719 153.704 16.4474C153.876 16.6229 154.01 16.8309 154.1 17.0592C154.19 17.2875 154.234 17.5314 154.228 17.7767V31.7328C154.234 31.9781 154.19 32.222 154.1 32.4503C154.01 32.6786 153.876 32.8867 153.704 33.0623C153.533 33.2378 153.328 33.3772 153.102 33.4724C152.876 33.5676 152.633 33.6167 152.387 33.6167C152.142 33.6167 151.899 33.5676 151.673 33.4724C151.447 33.3772 151.242 33.2378 151.071 33.0623C150.899 32.8867 150.764 32.6786 150.675 32.4503C150.585 32.222 150.541 31.9781 150.547 31.7328V17.7767Z" fill="#FFFFFE" />
		<path d="M156.468 24.772C156.447 23.6017 156.663 22.4392 157.101 21.3539C157.539 20.2686 158.192 19.2828 159.02 18.4551C159.847 17.6274 160.833 16.9749 161.919 16.5364C163.004 16.098 164.166 15.8825 165.337 15.903C166.539 15.8732 167.733 16.0995 168.841 16.5669C169.949 17.0343 170.945 17.7322 171.763 18.6141C172.079 18.9655 172.268 19.4137 172.298 19.886C172.3 20.1192 172.253 20.3503 172.162 20.5647C172.07 20.7792 171.935 20.9725 171.766 21.1326C171.596 21.2927 171.395 21.4162 171.176 21.4954C170.957 21.5746 170.723 21.6079 170.491 21.5931C170.19 21.5778 169.896 21.5017 169.625 21.3693C169.355 21.237 169.114 21.0511 168.918 20.823C168.456 20.3401 167.899 19.9572 167.283 19.6982C166.667 19.4391 166.005 19.3094 165.337 19.3171C163.942 19.3949 162.631 20.0035 161.671 21.0181C160.712 22.0327 160.177 23.3761 160.177 24.7725C160.177 26.1689 160.712 27.5123 161.671 28.5269C162.631 29.5415 163.942 30.1502 165.337 30.2281C165.999 30.2324 166.656 30.1011 167.266 29.8421C167.876 29.5831 168.427 29.2018 168.885 28.722C169.288 28.241 169.866 27.9401 170.492 27.8851C170.729 27.8747 170.966 27.9132 171.188 27.9982C171.409 28.0833 171.611 28.2131 171.781 28.3794C171.95 28.5458 172.084 28.7451 172.173 28.9653C172.262 29.1854 172.305 29.4215 172.299 29.659C172.267 30.1109 172.077 30.5373 171.764 30.8641C170.958 31.765 169.966 32.48 168.856 32.9596C167.747 33.4393 166.546 33.6721 165.338 33.642C164.167 33.6627 163.004 33.4475 161.919 33.0091C160.833 32.5707 159.847 31.9181 159.019 31.0903C158.192 30.2624 157.539 29.2764 157.1 28.1908C156.662 27.1053 156.447 25.9425 156.468 24.772Z" fill="#FFFFFE" />
		<path d="M175.412 27.9178C175.664 27.9087 175.914 27.9657 176.137 28.0831C176.36 28.2004 176.549 28.374 176.684 28.5867C176.931 29.0848 177.306 29.5084 177.771 29.8143C178.235 30.1201 178.773 30.2973 179.328 30.3278C179.572 30.3362 179.816 30.2959 180.045 30.2093C180.273 30.1227 180.482 29.9916 180.66 29.8234C180.837 29.6553 180.98 29.4536 181.079 29.2299C181.178 29.0063 181.231 28.7653 181.236 28.5208C181.236 27.1488 179.964 26.6128 178.392 26.0778C176.283 25.3418 173.906 24.4378 173.906 20.9908C173.919 20.2979 174.07 19.6145 174.351 18.9811C174.633 18.3478 175.038 17.7772 175.543 17.303C176.049 16.8289 176.644 16.4607 177.294 16.2204C177.944 15.9801 178.636 15.8724 179.328 15.9038C182.173 15.9038 184.784 17.6438 184.784 19.7528C184.782 19.9732 184.735 20.1909 184.648 20.3933C184.56 20.5956 184.434 20.7784 184.275 20.9311C184.116 21.0838 183.928 21.2033 183.722 21.2825C183.517 21.3618 183.297 21.3993 183.077 21.3928C182.86 21.4045 182.644 21.3543 182.454 21.2481C182.265 21.1419 182.109 20.984 182.006 20.7928C181.705 20.3446 181.309 19.9683 180.846 19.6905C180.383 19.4127 179.865 19.2404 179.328 19.1857C179.085 19.1757 178.842 19.2152 178.615 19.3016C178.387 19.388 178.18 19.5196 178.005 19.6885C177.829 19.8574 177.69 20.0601 177.596 20.2842C177.501 20.5084 177.453 20.7494 177.454 20.9927C177.454 22.3647 178.86 22.8008 180.567 23.3688C182.609 24.0048 184.918 25.0758 184.918 28.4228C184.865 29.8549 184.247 31.2077 183.2 32.186C182.153 33.1642 180.761 33.6883 179.329 33.6437C176.35 33.6437 173.74 31.7028 173.74 29.6278C173.737 29.4055 173.778 29.1849 173.86 28.9785C173.942 28.772 174.065 28.5839 174.22 28.425C174.376 28.2661 174.561 28.1395 174.765 28.0524C174.97 27.9654 175.19 27.9196 175.412 27.9178V27.9178Z" fill="#FFFFFE" />
		<path d="M23.0118 39.7831H7.21191L11.6218 33.5721L28.2739 29.3721H30.0288" fill="#FFFFFE" />
		<path d="M38.8079 16.3811L30.0328 29.3691H14.6099L23.8308 16.3811H38.8079Z" fill="#FFFFFE" />
		<path d="M35.3359 0L24.22 16.381H24.1029L14.882 29.369H0L19.541 0H35.3359Z" fill="#FFFFFE" />
	</g>
	<defs>
		<clipPath id="clip0_198_2658">
			<rect width="184.917" height="40" fill="white" />
		</clipPath>
	</defs>
</svg>